HIERARCHY
ROOT Hips
{
	OFFSET 0.000000 89.005402 0.000000
	CHANNELS 6 Xposition Yposition Zposition Xrotation Yrotation Zrotation
	JOINT Spine
	{
		OFFSET 0.116900 10.681000 0.373400
		CHANNELS 3 Xrotation Yrotation Zrotation
		JOINT Spine1
		{
			OFFSET 0.000000 13.840401 0.053500
			CHANNELS 3 Xrotation Yrotation Zrotation
			JOINT Spine2
			{
				OFFSET 0.000000 14.712700 -0.366200
				CHANNELS 3 Xrotation Yrotation Zrotation
				JOINT Neck
				{
					OFFSET 0.000000 35.415497 -3.314200
					CHANNELS 3 Xrotation Yrotation Zrotation
					JOINT Head
					{
						OFFSET 0.000000 16.899200 1.218300
						CHANNELS 3 Xrotation Yrotation Zrotation
						JOINT HeadTop_End
						{
							OFFSET 0.000000 22.206207 2.192500
							CHANNELS 3 Xrotation Yrotation Zrotation
							End Site
							{
								OFFSET 0.000000 22.314178 0.000000
							}
						}
					}
				}
				JOINT LeftShoulder
				{
					OFFSET 12.896400 26.716293 -4.548400
					CHANNELS 3 Xrotation Yrotation Zrotation
					JOINT LeftArm
					{
						OFFSET 19.027000 -4.857010 -1.718400
						CHANNELS 3 Xrotation Yrotation Zrotation
						JOINT LeftForeArm
						{
							OFFSET 24.179897 0.000000 0.000000
							CHANNELS 3 Xrotation Yrotation Zrotation
							JOINT LeftHand
							{
								OFFSET 27.156403 0.000000 0.000000
								CHANNELS 3 Xrotation Yrotation Zrotation
								JOINT LeftHandIndex1
								{
									OFFSET 16.441200 0.000000 0.000000
									CHANNELS 3 Xrotation Yrotation Zrotation
									JOINT LeftHandIndex2
									{
										OFFSET 4.821899 0.000000 0.000000
										CHANNELS 3 Xrotation Yrotation Zrotation
										JOINT LeftHandIndex3
										{
											OFFSET 6.386497 0.000000 0.000000
											CHANNELS 3 Xrotation Yrotation Zrotation
											JOINT LeftHandIndex4
											{
												OFFSET 5.188988 0.000000 0.000000
												CHANNELS 3 Xrotation Yrotation Zrotation
												End Site
												{
													OFFSET -0.178703 5.185913 0.000177
												}
											}
										}
									}
								}
								JOINT LeftHandThumb1
								{
									OFFSET 6.534897 -5.032593 5.900300
									CHANNELS 3 Xrotation Yrotation Zrotation
									JOINT LeftHandThumb2
									{
										OFFSET 3.818176 -2.204422 2.204423
										CHANNELS 3 Xrotation Yrotation Zrotation
										JOINT LeftHandThumb3
										{
											OFFSET 3.252098 -1.877594 1.877601
											CHANNELS 3 Xrotation Yrotation Zrotation
											JOINT LeftHandThumb4
											{
												OFFSET 5.251778 -3.032120 3.032117
												CHANNELS 3 Xrotation Yrotation Zrotation
												End Site
												{
													OFFSET 0.000023 6.780014 0.000000
												}
											}
										}
									}
								}
							}
						}
					}
				}
				JOINT RightShoulder
				{
					OFFSET -12.896300 26.716293 -4.548400
					CHANNELS 3 Xrotation Yrotation Zrotation
					JOINT RightArm
					{
						OFFSET -19.027000 -4.857010 -1.718400
						CHANNELS 3 Xrotation Yrotation Zrotation
						JOINT RightForeArm
						{
							OFFSET -24.179897 0.000000 0.000000
							CHANNELS 3 Xrotation Yrotation Zrotation
							JOINT RightHand
							{
								OFFSET -27.156403 0.000000 0.000000
								CHANNELS 3 Xrotation Yrotation Zrotation
								JOINT RightHandThumb1
								{
									OFFSET -6.591202 -4.852203 5.988100
									CHANNELS 3 Xrotation Yrotation Zrotation
									JOINT RightHandThumb2
									{
										OFFSET -3.818176 -2.204422 2.204423
										CHANNELS 3 Xrotation Yrotation Zrotation
										JOINT RightHandThumb3
										{
											OFFSET -3.252098 -1.877594 1.877601
											CHANNELS 3 Xrotation Yrotation Zrotation
											JOINT RightHandThumb4
											{
												OFFSET -5.251778 -3.032120 3.032117
												CHANNELS 3 Xrotation Yrotation Zrotation
												End Site
												{
													OFFSET -0.000023 6.780014 0.000000
												}
											}
										}
									}
								}
								JOINT RightHandIndex1
								{
									OFFSET -16.029404 0.000000 0.000000
									CHANNELS 3 Xrotation Yrotation Zrotation
									JOINT RightHandIndex2
									{
										OFFSET -5.213303 0.000000 0.000000
										CHANNELS 3 Xrotation Yrotation Zrotation
										JOINT RightHandIndex3
										{
											OFFSET -6.386528 0.000000 0.000000
											CHANNELS 3 Xrotation Yrotation Zrotation
											JOINT RightHandIndex4
											{
												OFFSET -5.189026 0.000000 0.000000
												CHANNELS 3 Xrotation Yrotation Zrotation
												End Site
												{
													OFFSET 0.236702 5.183624 0.001972
												}
											}
										}
									}
								}
							}
						}
					}
				}
			}
		}
	}
	JOINT LeftUpLeg
	{
		OFFSET 14.073000 -7.904099 -1.463000
		CHANNELS 3 Xrotation Yrotation Zrotation
		JOINT LeftLeg
		{
			OFFSET -0.109806 -34.073280 4.093200
			CHANNELS 3 Xrotation Yrotation Zrotation
			JOINT LeftFoot
			{
				OFFSET 0.109806 -29.899420 -6.319000
				CHANNELS 3 Xrotation Yrotation Zrotation
				JOINT LeftToeBase
				{
					OFFSET 1.551100 -14.988700 20.535801
					CHANNELS 3 Xrotation Yrotation Zrotation
					JOINT LeftToe_End
					{
						OFFSET 0.221200 0.570800 13.248301
						CHANNELS 3 Xrotation Yrotation Zrotation
						End Site
						{
							OFFSET 0.000000 13.262435 0.000000
						}
					}
				}
			}
		}
	}
	JOINT RightUpLeg
	{
		OFFSET -13.839300 -7.904099 -1.463000
		CHANNELS 3 Xrotation Yrotation Zrotation
		JOINT RightLeg
		{
			OFFSET 0.109694 -34.073219 4.093300
			CHANNELS 3 Xrotation Yrotation Zrotation
			JOINT RightFoot
			{
				OFFSET -0.109694 -29.899384 -6.319200
				CHANNELS 3 Xrotation Yrotation Zrotation
				JOINT RightToeBase
				{
					OFFSET -1.551100 -14.988700 20.535801
					CHANNELS 3 Xrotation Yrotation Zrotation
					JOINT RightToe_End
					{
						OFFSET -0.221200 0.570900 13.248299
						CHANNELS 3 Xrotation Yrotation Zrotation
						End Site
						{
							OFFSET 0.000000 13.262440 0.000000
						}
					}
				}
			}
		}
	}
}
MOTION
Frames: 4
Frame Time: 0.033333
5.795290 59.184669 5.061050 46.128632 24.595667 -22.009887 23.214413 3.229484 -0.808885 14.477768 0.203048 -0.237787 13.764977 0.192738 -0.187605 -17.188110 -5.950723 -2.404497 -68.540771 -36.506265 -5.150863 0.000000 0.000000 0.000001 0.066454 -9.146958 -19.764052 1.261277 -15.435331 -36.554189 0.000008 -23.998580 -0.000001 -25.793535 -17.387940 -19.681204 2.184448 -10.355526 2.710302 0.195078 1.500662 -14.811755 0.025226 0.543662 -5.313033 -0.000002 -0.000002 0.000001 -16.063843 -0.644387 -1.721627 4.401064 20.298414 -9.586118 -17.892533 -22.034634 5.837306 -0.000003 -0.000001 -0.000001 -0.715725 27.983044 15.610474 -76.005751 18.207911 11.287164 0.000014 64.894768 -0.000027 53.816170 26.207323 -48.093834 -13.883077 -3.695134 13.911962 7.375307 -23.020803 -2.783699 -3.459235 -24.954479 -18.671231 -0.000001 0.000000 -0.000001 0.078018 -1.754126 -6.493647 0.027748 -0.508185 6.250801 0.018227 -0.412076 5.065103 -0.000001 -0.000003 0.000001 -112.877878 -12.593945 0.796050 101.244010 6.133772 0.422794 -5.080611 0.429913 -4.397311 -11.499479 2.193868 -13.153067 0.000000 0.000001 -0.000000 -90.629534 -16.793839 5.468164 87.842653 -7.687438 -0.459281 -38.806246 3.304612 -12.190918 -0.814171 -0.000012 0.000003 0.000000 -0.000000 0.000000 
5.795198 59.331322 10.280910 44.638227 21.406694 -20.098096 23.693417 4.900944 -2.391749 14.700946 0.413240 -0.381382 13.989152 0.405781 -0.353667 -18.289471 -5.691805 -2.721923 -68.426030 -35.426678 -4.871199 -0.000000 -0.000000 0.000000 0.068401 -8.691154 -20.817477 1.471458 -17.425508 -36.184478 0.000003 -23.769593 -0.000010 -27.179119 -18.592449 -20.922854 2.184447 -10.355529 2.710302 0.195072 1.500663 -14.811757 0.025223 0.543666 -5.313030 0.000002 0.000001 -0.000000 -16.063845 -0.644385 -1.721623 4.401064 20.298417 -9.586123 -17.892531 -22.034639 5.837312 -0.000001 -0.000003 0.000000 -0.516989 28.383553 14.627091 -77.117999 18.681727 12.980198 -0.000059 66.022268 0.000058 55.449617 26.295822 -47.869640 -13.883078 -3.695138 13.911963 7.375307 -23.020804 -2.783699 -3.459232 -24.954477 -18.671229 0.000001 -0.000000 0.000000 0.078018 -1.754125 -6.493648 0.027748 -0.508189 6.250806 0.018224 -0.412069 5.065105 -0.000000 -0.000002 0.000001 -120.215182 -6.690008 -1.166861 88.060215 6.747160 0.590718 10.260615 2.482791 -6.109628 -14.194402 0.660648 -2.740842 0.000000 -0.000002 0.000000 -81.855132 -18.689877 10.977664 86.285315 -7.601556 -0.558908 -44.031296 5.398197 -14.663436 -1.101217 -0.000000 0.000002 -0.000000 -0.000000 0.000000 
5.852251 59.164124 15.654415 43.542640 18.357863 -18.147317 23.600291 6.294835 -4.448920 14.658141 0.623806 -0.601779 13.947790 0.609371 -0.603995 -19.427423 -5.293644 -3.303662 -67.332558 -35.181956 -4.331084 -0.000000 -0.000000 0.000000 0.087406 -8.066319 -21.981381 2.428606 -18.954501 -35.469674 -0.000007 -23.929387 0.000001 -28.368296 -18.982583 -21.882977 2.184447 -10.355529 2.710301 0.195080 1.500660 -14.811757 0.025223 0.543663 -5.313027 0.000000 -0.000001 0.000001 -16.063848 -0.644381 -1.721622 4.401062 20.298410 -9.586124 -17.892531 -22.034636 5.837303 -0.000001 0.000002 0.000002 -0.369055 28.651708 13.927211 -77.288945 18.854281 14.733521 -0.000046 66.461518 0.000045 57.166235 26.216438 -47.510567 -13.883075 -3.695137 13.911967 7.375307 -23.020797 -2.783697 -3.459231 -24.954474 -18.671231 0.000000 -0.000000 0.000001 0.078019 -1.754128 -6.493647 0.027748 -0.508187 6.250805 0.018227 -0.412072 5.065105 0.000000 -0.000001 0.000001 -123.719779 -1.251184 -2.091461 74.441419 7.500365 1.326825 22.184562 7.364482 -8.806469 -6.888119 -0.772775 6.780683 0.000001 0.000000 0.000000 -72.996274 -19.046206 16.039851 84.120658 -7.245331 -0.582284 -48.991714 7.489307 -16.756701 -1.746332 0.000012 0.000001 0.000000 0.000000 0.000000 
5.759314 59.257919 20.987614 42.829231 15.364611 -16.400193 23.118432 7.428924 -6.729995 14.420659 0.857945 -0.854724 13.712030 0.829574 -0.894537 -19.783827 -4.900153 -3.761116 -66.263319 -35.451212 -3.608213 -0.000000 -0.000000 -0.000001 0.128080 -7.358705 -23.187495 3.916639 -19.881142 -34.556502 -0.000001 -24.501338 0.000008 -29.199509 -18.698034 -22.492083 2.184450 -10.355527 2.710303 0.195078 1.500665 -14.811757 0.025226 0.543660 -5.313028 -0.000001 -0.000003 0.000001 -16.063845 -0.644383 -1.721623 4.401064 20.298414 -9.586124 -17.892533 -22.034636 5.837305 -0.000003 -0.000000 0.000001 -0.245321 28.855920 13.352364 -76.723815 18.669535 16.566352 0.000019 66.407409 -0.000005 58.970173 25.959478 -47.191061 -13.883077 -3.695134 13.911964 7.375307 -23.020803 -2.783701 -3.459231 -24.954474 -18.671227 -0.000000 0.000000 0.000000 0.078018 -1.754125 -6.493650 0.027750 -0.508183 6.250805 0.018225 -0.412074 5.065101 -0.000001 -0.000002 -0.000001 -123.288657 2.370427 -2.626427 57.750069 8.904740 1.754975 33.029070 8.359967 -9.492484 -3.462038 -0.154166 3.047598 -0.000000 0.000001 0.000000 -64.314482 -18.203168 20.274377 81.131733 -6.755094 -0.538427 -52.407109 9.335983 -18.540543 -3.404624 -0.000002 0.000002 0.000000 -0.000000 0.000000 
